<svg width="104" height="79" viewBox="0 0 104 79" fill="none" xmlns="http://www.w3.org/2000/svg">
<path d="M0 7C0 3.13401 3.13401 0 7 0H97C100.866 0 104 3.13401 104 7V47C104 50.866 100.866 54 97 54H7C3.13401 54 0 50.866 0 47V7Z" fill="#A50E6A"/>
<path d="M70.5 79L41.4881 28.75L99.5119 28.75L70.5 79Z" fill="#AA0E6A"/>
<path d="M45.5458 21.8V23.912L36.7378 27.872V27.92L45.5458 31.88V33.992L34.2418 28.856V26.936L45.5458 21.8Z" fill="white"/>
<path d="M54.9077 16.976H56.9717L50.1077 37.04H48.0437L54.9077 16.976Z" fill="white"/>
<path d="M59.4523 23.912V21.8L70.7563 26.936V28.856L59.4523 33.992V31.88L68.2603 27.92V27.872L59.4523 23.912Z" fill="white"/>
</svg>
